<?xml version="1.0" encoding="utf-8"?>
<!-- Generator: Adobe Illustrator 25.3.1, SVG Export Plug-In . SVG Version: 6.00 Build 0)  -->
<svg version="1.1" id="图层_1" xmlns="http://www.w3.org/2000/svg" x="0px" y="0px"
     viewBox="0 0 498.6 526" style="enable-background:new 0 0 498.6 526;" xml:space="preserve">
<style type="text/css">
	.st0{fill:#00A887;}
</style>
    <g>
	<path class="st0" d="M330.6,1.8c-5.1,2.8-9.7,11.7-9.7,18.8c0,9.3,3.9,15.4,11.4,17.2c7.9,1.9,19.1-5.6,23.4-15.6
		c1.8-4.1,1.8-5,0.3-8.1c-2.4-5.2-7.5-10.3-12.8-12.3C337.4-0.6,335-0.6,330.6,1.8z"/>
        <path class="st0" d="M357,66.2c-16.4,3.2-28.6,11.4-36.7,24.8c-12.7,20.8-18.4,27.4-25.1,28.5c-7.9,1.3-12-3.5-14.2-16.8
		c-2.6-15.4-7.8-19.9-22.5-20c-6.7,0-9.9,0.5-13.4,2.2c-6,2.8-12.2,8.6-16.6,15.6c-4.3,7.1-7.5,10.3-10.3,10.3
		c-1.1,0-7.3-1.1-13.8-2.6c-32.4-7-47.6-6.1-65,3.9c-11.9,7-20.7,17.5-25.3,30.4c-3.1,8.4-1.9,19.4,2.4,25
		c4.3,5.4,11.4,10.3,18.4,12.5c9.3,3,25.8,10.5,30.3,13.9c9.3,7.1,11.3,17,4.9,25.6c-3.3,4.6-5.5,5.6-30.3,14.9
		c-8.4,3.2-17.4,6.9-20.1,8.2c-16,8.4-26.3,28.6-23.4,45.3c2.8,16.4,18.2,30.7,39.2,36.3c10.1,2.9,24.5,2.4,34.3-1
		c12.7-4.5,29-20.8,52.2-52.5c10.8-14.6,14.7-17.3,20.5-14.7c4.7,2.2,10.5,10,14.8,19.8c8.4,19.6,21.8,31.7,37.2,33.5
		c7,0.8,18.8-2.2,28.4-7c8.1-4.1,19.5-14.6,23.4-21.4c9.1-16.1,7.5-22.6-14.8-57.4c-15.4-23.8-17.3-27.8-17.3-34.5
		c0-13.9,9.9-19,39.9-20.8c23.9-1.5,35.6-5.2,47.8-15.1c10.9-8.9,17.1-19.4,19.5-32.9c2.2-11.9-0.9-19.3-16.1-38.5
		c-8.2-10.5-12.7-14.2-19.1-16.1C380.8,64.1,366.6,64.3,357,66.2z"/>
        <path class="st0" d="M393.9,211.3c-3.6,1.3-7.8,4.8-9.8,8.3c-3.1,5.3-1.4,15.2,3.5,19.3c3.5,3,11.4,3.2,16.8,0.3
		c11.7-6.2,11.6-19.5-0.2-26.8C400.1,210,398.3,209.8,393.9,211.3z"/>
</g>
    <path class="st0" d="M118.8,374.2c-1.4,1.8-20,70.8-30.7,114.2c-7.5,30.3-7.5,31.2-1.2,33.4c4.8,1.8,6.5-1,10.3-15.4
	c1.8-6.9,3.4-12.7,3.7-13c0.2-0.1,8.9,0,19.5,0.4l19.1,0.5l2.1,12.6c1.7,9.7,2.9,13.3,4.9,15.3c3.3,3.3,5.7,3.4,8.8,0.4
	c3-3,3-3.1,0.1-16.8c-1.3-6.2-4.8-26.7-7.7-45.7c-8-51.3-15.9-84.7-20.4-86.5C124.2,372.3,120.1,372.7,118.8,374.2z M132.1,447.7
	c2.3,14,4.3,27.1,4.5,29.1l0.4,3.6l-15.9-0.2c-8.7-0.1-16-0.5-16.4-0.7c-0.5-0.5,13.2-54.9,17.7-70.3l1.3-4.8l2.1,8.9
	C127,418.1,129.8,433.6,132.1,447.7z"/>
    <path class="st0" d="M3.6,375.2c-3.2,1.3-4.6,5.9-2.9,9.3c1.8,3.4,6.9,4.2,21.3,3.2l12.5-0.8l-0.7,15.8c-0.5,8.8-1,39.1-1.1,67.5
	c-0.2,49.3-0.1,51.6,2,53.1c4.2,3.1,8,1.8,9.9-3.1c0.6-1.7,1.5-32.3,2-68.1l1-65h15.8c14.5,0,15.9-0.2,17.1-2.3
	c1.9-3.7,1.4-8.2-1.1-9.6C76.6,373.6,7.4,373.6,3.6,375.2z"/>
    <path class="st0" d="M185.2,376.3c-2.5,2.5-2.5,3-2.5,73.8c0,69.1,0.1,71.3,2.3,72.5c3.4,1.8,6.7,1.4,8.8-1c1.8-1.9,2-5.8,2-30.9
	v-28.8h9.4c5.2,0,10.2-0.2,11.2-0.6c1.2-0.5,3.1,2.5,6.7,10.8c5,11.3,15.6,41.7,15.6,44.9c0,2.4,4,5.5,7.2,5.5c6.7,0,7.2-4.5,3-20
	c-3.7-12.8-7.8-24.2-13.5-36.4l-4.3-9.3l3.4-2.5c6.1-4.3,10.3-9.5,13.5-16.3c2.7-5.8,3.1-8,3.1-19.6c0-11.6-0.4-13.8-3.1-19.7
	c-4.4-9.4-10.7-15.8-19.8-20.3c-7.6-3.8-8.6-3.9-24.1-4.3C188.7,373.8,187.5,373.9,185.2,376.3z M211.8,388.4
	c3.9,0.7,9,2.3,11.4,3.4c9.5,5,15.3,16.2,15.3,29.6c-0.1,16.8-11.2,26.1-32.3,27.2l-10.5,0.5v-31v-31h4.5
	C202.8,387.1,208,387.7,211.8,388.4z"/>
    <path class="st0" d="M282.7,377c-2.6,3.3-2.6,3.3-2.6,74.4v71l2.6,1.8c3.4,2.5,6.1,2.4,8.4-0.2c1.8-1.9,2-5.8,2-30.7v-28.5l15.2,0.5
	c13.8,0.5,15.7,0.2,20.8-2.1c10.1-4.8,16.4-15.4,18.7-31.7c3.1-23.3-6.1-44.8-23-53.6c-5.5-2.9-7.5-3.1-22.8-3.6l-16.8-0.5
	L282.7,377z M316.1,388.4c6.9,1.9,13.2,8.9,16.3,18.3c3.7,11,3.1,27.2-1.3,35.8c-4.2,8.1-8.2,10.1-20.1,10.1
	c-5.2,0-11.4-0.4-13.7-0.8l-4.2-0.7v-32v-32h9.3C307.4,387.1,313.6,387.7,316.1,388.4z"/>
    <path class="st0" d="M379.2,375.8c-2.5,1.7-2.5,1.8-2.1,73.8c0.4,77.7,0,74.1,6.5,74.1c6.5,0,6.4,1.8,6.4-72.4
	c-0.1-37.7-0.5-69.9-1-71.5c-0.4-1.7-2.1-3.7-3.8-4.4C381.4,373.6,382.2,373.6,379.2,375.8z"/>
    <path class="st0" d="M419.4,375.9c-2,1.4-2.6,2.9-2.4,5.6c0.6,5.9,3.9,7,19.8,6.2l13.5-0.7l-0.7,67c-0.7,65.2-0.7,67.1,1.5,69.1
	c2.9,2.6,7.7,1.5,9.7-2.1c1.1-1.9,1.5-20,2-68l0.7-65.3l15.4-0.4c14-0.2,15.7-0.5,17.6-2.7c2.6-3.2,2.6-6.2-0.1-8.6
	c-1.9-1.8-6.4-2-38.4-2C427,374,421.6,374.2,419.4,375.9z"/>
</svg>
