<svg version="1.0" xmlns="http://www.w3.org/2000/svg" width="500px" height="590px" viewBox="0 0 505 590"
     preserveAspectRatio="xMidYMid meet">
    <g transform="translate(-305,770) scale(0.12,-0.12)" fill="#00695c" stroke="none">
        <path d="M5264 6371 c-45 -27 -85 -114 -85 -183 0 -91 34 -150 100 -168 69 -19 168 55 205 152 16 40 16 49 3 79 -21 51 -66 100 -112 120 -51 24 -72 24 -111 0z"/>
        <path d="M5496 5744 c-144 -31 -251 -111 -322 -242 -111 -203 -161 -267 -220 -278 -69 -13 -105 34 -125 164 -23 150 -68 194 -197 195 -59 0 -87 -5 -118 -21 -53 -27 -107 -84 -146 -152 -38 -69 -66 -100 -90 -100 -10 0 -64 11 -121 25 -284 68 -418 59 -570 -38 -104 -68 -182 -171 -222 -296 -27 -82 -17 -189 21 -244 38 -53 100 -100 161 -122 82 -29 226 -102 266 -135 82 -69 99 -166 43 -250 -29 -45 -48 -55 -266 -145 -74 -31 -153 -67 -176 -80 -140 -82 -231 -279 -205 -442 25 -160 160 -299 344 -354 89 -28 215 -23 301 10 111 44 254 203 458 512 95 142 129 169 180 143 41 -21 92 -97 130 -193 74 -191 191 -309 326 -327 61 -8 165 21 249 68 71 40 171 142 205 209 80 157 66 220 -130 559 -135 232 -152 271 -152 336 0 135 87 185 350 203 210 15 312 51 419 147 96 87 150 189 171 321 19 116 -8 188 -141 375 -72 102 -111 138 -168 157 -46 15 -171 13 -255 -5z"/>
        <path d="M5820 4329 c-32 -13 -68 -47 -86 -81 -27 -52 -12 -148 31 -188 31 -29 100 -31 147 -3 103 60 102 190 -2 261 -36 24 -52 26 -90 11z"/>
        <path d="M3542 2788 c-12 -15 -168 -596 -258 -961 -63 -255 -63 -263 -10 -281 40 -15 55 8 87 130 15 58 29 107 31 109 2 1 75 0 164 -3 l161 -4 18 -106 c14 -82 24 -112 41 -129 28 -28 48 -29 74 -3 25 25 25 26 1 141 -11 52 -40 225 -65 385 -67 432 -134 713 -172 728 -26 10 -61 7 -72 -6z m112 -618 c19 -118 36 -228 38 -245 l3 -30 -134 2 c-73 1 -135 4 -138 6 -4 4 111 462 149 592 l11 40 18 -75 c10 -41 34 -172 53 -290z"/>
        <path d="M2573 2780 c-27 -11 -39 -50 -24 -78 15 -29 58 -35 179 -27 l105 7 -6 -133 c-4 -74 -8 -329 -9 -568 -2 -415 -1 -434 17 -447 35 -26 67 -15 83 26 5 14 13 272 17 573 l8 547 133 0 c122 0 134 2 144 19 16 31 12 69 -9 81 -24 13 -606 13 -638 0z"/>
        <path d="M4101 2771 c-21 -21 -21 -25 -21 -621 0 -582 1 -600 19 -610 29 -15 56 -12 74 8 15 16 17 49 17 260 l0 242 79 0 c44 0 86 2 94 5 10 4 26 -21 56 -91 42 -95 131 -351 131 -378 0 -20 34 -46 61 -46 56 0 61 38 25 168 -31 108 -66 204 -114 306 l-36 78 29 21 c51 36 87 80 114 137 23 49 26 67 26 165 0 98 -3 116 -26 166 -37 79 -90 133 -167 171 -64 32 -72 33 -203 36 -128 4 -138 3 -158 -17z m224 -102 c33 -6 76 -19 96 -29 80 -42 129 -136 129 -249 -1 -141 -94 -220 -272 -229 l-88 -4 0 261 0 261 38 0 c21 0 65 -5 97 -11z"/>
        <path d="M4922 2765 c-22 -28 -22 -28 -22 -626 l0 -598 22 -15 c29 -21 51 -20 71 2 15 16 17 49 17 258 l0 240 128 -4 c116 -4 132 -2 175 18 85 40 138 130 157 267 26 196 -51 377 -194 451 -46 24 -63 26 -192 30 l-141 4 -21 -27z m281 -96 c58 -16 111 -75 137 -154 31 -93 26 -229 -11 -301 -35 -68 -69 -85 -169 -85 -44 0 -96 3 -115 7 l-35 6 0 269 0 269 78 0 c42 0 94 -5 115 -11z"/>
        <path d="M5734 2775 c-21 -14 -21 -15 -18 -621 3 -654 0 -624 55 -624 55 0 54 -15 54 609 -1 317 -4 588 -8 602 -3 14 -18 31 -32 37 -32 15 -26 15 -51 -3z"/>
        <path d="M6072 2774 c-17 -12 -22 -24 -20 -47 5 -50 33 -59 167 -52 l114 6 -6 -564 c-6 -549 -6 -565 13 -582 24 -22 65 -13 82 18 9 16 13 168 17 572 l6 550 130 3 c118 2 132 4 148 23 22 27 22 52 -1 72 -16 15 -54 17 -323 17 -263 0 -308 -2 -327 -16z"/>
    </g>
</svg>
