<?xml version="1.0" encoding="utf-8"?>
<!-- Generator: Adobe Illustrator 25.3.1, SVG Export Plug-In . SVG Version: 6.00 Build 0)  -->
<svg version="1.1" id="图层_1" xmlns="http://www.w3.org/2000/svg" x="0px" y="0px"
     viewBox="0 0 120 120" style="enable-background:new 0 0 120 120;" xml:space="preserve">
<style type="text/css">
	.st0{fill:#fc7930;}
</style>
    <g>
	<path class="st0" d="M38,10.7c-1.6,1-3,4.2-3,6.7c0,3.4,1.2,5.5,3.5,6.1c2.4,0.7,5.8-2.1,7.2-5.5c0.6-1.5,0.6-1.8,0.2-2.9
		c-0.8-1.9-2.3-3.6-3.9-4.4C40.2,9.8,39.4,9.8,38,10.7z"/>
        <path class="st0" d="M89.9,17.1c-5,1.2-8.8,4.1-11.2,8.9c-3.9,7.4-5.6,9.8-7.7,10.2c-2.4,0.5-3.7-1.2-4.4-6
		c-0.9-5.4-2.4-7.1-6.9-7.1c-2.1,0-3.1,0.2-4.1,0.8c-1.9,1-3.8,3.1-5.1,5.5c-1.3,2.6-2.3,3.6-3.2,3.6c-0.4,0-2.2-0.4-4.2-1
		c-9.9-2.5-14.6-2.2-19.9,1.4c-3.6,2.6-6.4,6.3-7.8,10.9c-0.9,3-0.6,7,0.8,8.9c1.3,2,3.5,3.6,5.6,4.5c2.8,1.1,7.9,3.7,9.3,5
		c2.8,2.6,3.5,6.1,1.6,9.1c-1,1.7-1.7,2.1-9.3,5.3c-2.6,1.2-5.4,2.5-6.2,2.9c-4.9,3-8.1,10.3-7.2,16.2c0.9,5.9,5.6,11,12,13
		c3.2,1,7.6,0.9,10.6-0.4c3.9-1.6,8.8-7.4,16-18.7c3.4-5.2,4.6-6.2,6.3-5.3c1.4,0.8,3.2,3.6,4.6,7.1c2.6,7,6.7,11.4,11.4,12
		c2.2,0.3,5.8-0.8,8.7-2.5c2.5-1.5,6-5.2,7.2-7.7c2.8-5.8,2.3-8-4.6-20.5c-4.8-8.5-5.3-9.9-5.3-12.3c0-5,3.1-6.8,12.2-7.4
		c7.3-0.6,10.9-1.9,14.6-5.4c3.4-3.2,5.2-7,6-11.8c0.7-4.2-0.3-6.9-5-13.7c-2.5-3.7-3.9-5.1-5.8-5.8C97.2,16.4,92.8,16.5,89.9,17.1z
		"/>
        <path class="st0" d="M101.3,69c-1.1,0.5-2.4,1.7-3,3c-1,1.9-0.4,5.4,1.1,6.9c1.1,1.1,3.5,1.2,5.2,0.2c3.6-2.2,3.6-7-0.1-9.6
		C103.2,68.5,102.6,68.4,101.3,69z"/>
</g>
</svg>
