<?xml version="1.0" encoding="utf-8"?>
<!-- Generator: Adobe Illustrator 25.3.1, SVG Export Plug-In . SVG Version: 6.00 Build 0)  -->
<svg version="1.1" id="图层_1" xmlns="http://www.w3.org/2000/svg" x="0px" y="0px"
     viewBox="0 0 723.7 176" style="enable-background:new 0 0 723.7 176;" xml:space="preserve">
<style type="text/css">
	.st0{fill:#fc7930;}
</style>
    <path class="st0" d="M344.1,15c-1.4,1.8-20,70.8-30.7,114.2c-7.5,30.3-7.5,31.2-1.2,33.4c4.8,1.8,6.5-1,10.3-15.4
	c1.8-6.9,3.4-12.7,3.7-13c0.2-0.1,8.9,0,19.5,0.4l19.1,0.5l2.2,12.5c1.7,9.7,2.9,13.3,4.9,15.3c3.3,3.3,5.7,3.4,8.8,0.4
	c3-3,3-3.1,0.1-16.8c-1.3-6.2-4.8-26.7-7.7-45.7c-8-51.3-15.9-84.7-20.4-86.5C349.6,13.1,345.4,13.5,344.1,15z M357.4,88.4
	c2.3,14,4.3,27.1,4.5,29.1l0.4,3.6l-15.9-0.2c-8.7-0.1-16-0.5-16.4-0.7c-0.5-0.5,13.2-54.9,17.7-70.3l1.3-4.8l2.1,8.9
	C352.3,58.9,355.1,74.4,357.4,88.4z"/>
    <path class="st0" d="M229,16c-3.2,1.3-4.6,5.9-2.9,9.3c1.8,3.4,6.9,4.2,21.3,3.2l12.5-0.8l-0.7,15.8c-0.5,8.8-1,39.1-1.1,67.5
	c-0.2,49.3-0.1,51.6,2,53.1c4.2,3.1,8,1.8,9.9-3.1c0.6-1.7,1.5-32.3,2-68.1l1-65h15.8c14.5,0,15.9-0.2,17.1-2.3
	c1.9-3.7,1.4-8.2-1.1-9.6C301.9,14.4,232.8,14.4,229,16z"/>
    <path class="st0" d="M410.5,17c-2.5,2.5-2.5,3-2.5,73.8c0,69.1,0.1,71.3,2.3,72.5c3.4,1.8,6.7,1.4,8.8-1c1.8-1.9,2-5.8,2-30.9v-28.7
	h9.4c5.2,0,10.2-0.2,11.2-0.6c1.2-0.5,3.1,2.5,6.7,10.8c5,11.3,15.6,41.7,15.6,44.9c0,2.4,4,5.5,7.2,5.5c6.7,0,7.2-4.5,3-20
	c-3.7-12.8-7.8-24.2-13.5-36.4l-4.3-9.3l3.4-2.5c6.1-4.3,10.3-9.5,13.5-16.3c2.7-5.8,3.1-8,3.1-19.6s-0.4-13.6-3.2-19.6
	c-4.4-9.4-10.7-15.8-19.8-20.3c-7.6-3.8-8.6-3.9-24.1-4.3C414.1,14.5,412.9,14.7,410.5,17z M437.1,29.2c3.9,0.7,9,2.3,11.4,3.4
	c9.5,5,15.3,16.2,15.3,29.6c-0.1,16.8-11.2,26.1-32.3,27.2L421,89.9v-31v-31h4.5C428.1,27.9,433.3,28.4,437.1,29.2z"/>
    <path class="st0" d="M508.1,17.8c-2.6,3.3-2.6,3.3-2.6,74.4v71l2.6,1.8c3.4,2.5,6.1,2.4,8.4-0.2c1.8-1.9,2-5.8,2-30.7v-28.5
	l15.2,0.5c13.8,0.5,15.7,0.2,20.8-2.1c10.1-4.8,16.4-15.4,18.7-31.7c3.1-23.3-6.1-44.8-23-53.6c-5.5-2.9-7.5-3.1-22.8-3.6l-16.8-0.5
	L508.1,17.8z M541.4,29.2c6.9,1.9,13.2,8.9,16.3,18.3c3.7,11,3.1,27.2-1.3,35.8c-4.2,8.1-8.2,10.1-20.1,10.1
	c-5.2,0-11.4-0.4-13.7-0.8l-4.2-0.7v-32v-32h9.3C532.8,27.9,538.9,28.4,541.4,29.2z"/>
    <path class="st0" d="M604.5,16.6c-2.5,1.7-2.5,1.8-2.1,73.8c0.4,77.7,0,74.1,6.5,74.1s6.4,1.8,6.4-72.4c-0.1-37.7-0.5-69.9-1-71.5
	c-0.4-1.7-2.1-3.7-3.8-4.4C606.8,14.4,607.5,14.4,604.5,16.6z"/>
    <path class="st0" d="M644.7,16.7c-2,1.4-2.6,2.9-2.4,5.6c0.6,5.9,3.9,7,19.8,6.2l13.5-0.7l-0.7,67c-0.7,65.2-0.7,67.1,1.5,69.1
	c2.9,2.6,7.7,1.5,9.7-2.1c1.1-1.9,1.5-20,2-68l0.7-65.3l15.4-0.4c14-0.2,15.7-0.5,17.6-2.7c2.6-3.2,2.6-6.2-0.1-8.6
	c-1.9-1.8-6.4-2-38.4-2C652.3,14.8,646.9,15,644.7,16.7z"/>
    <g>
	<path class="st0" d="M49.6,1.2C46.8,3,44.3,8.6,44.3,13c0,6,2.1,9.7,6.2,10.8c4.2,1.2,10.2-3.7,12.7-9.7c1.1-2.6,1.1-3.2,0.4-5.1
		c-1.4-3.3-4.1-6.3-6.9-7.8C53.5-0.4,52.1-0.4,49.6,1.2z"/>
        <path class="st0" d="M141.1,12.5c-8.8,2.1-15.5,7.2-19.7,15.7c-6.9,13-9.9,17.3-13.6,18c-4.2,0.9-6.5-2.1-7.8-10.6
		c-1.6-9.5-4.2-12.5-12.2-12.5c-3.7,0-5.5,0.4-7.2,1.4c-3.3,1.8-6.7,5.5-9,9.7c-2.3,4.6-4.1,6.3-5.6,6.3c-0.7,0-3.9-0.7-7.4-1.8
		c-17.5-4.4-25.7-3.9-35.1,2.5c-6.3,4.6-11.3,11.1-13.8,19.2c-1.6,5.3-1.1,12.3,1.4,15.7c2.3,3.5,6.2,6.3,9.9,7.9
		C26,86,35,90.6,37.5,92.9c4.9,4.6,6.2,10.8,2.8,16c-1.8,3-3,3.7-16.4,9.3c-4.6,2.1-9.5,4.4-10.9,5.1c-8.6,5.3-14.3,18.2-12.7,28.6
		c1.6,10.4,9.9,19.4,21.2,22.9c5.6,1.8,13.4,1.6,18.7-0.7c6.9-2.8,15.5-13,28.2-33c6-9.2,8.1-10.9,11.1-9.3
		c2.5,1.4,5.6,6.3,8.1,12.5c4.6,12.3,11.8,20.1,20.1,21.2c3.9,0.5,10.2-1.4,15.3-4.4c4.4-2.6,10.6-9.2,12.7-13.6
		c4.9-10.2,4.1-14.1-8.1-36.1c-8.5-15-9.3-17.5-9.3-21.7c0-8.8,5.5-12,21.5-13c12.9-1.1,19.2-3.3,25.7-9.5c6-5.6,9.2-12.3,10.6-20.8
		c1.2-7.4-0.5-12.2-8.8-24.2c-4.4-6.5-6.9-9-10.2-10.2C154,11.2,146.3,11.4,141.1,12.5z"/>
        <path class="st0" d="M161.2,104c-1.9,0.9-4.2,3-5.3,5.3c-1.8,3.3-0.7,9.5,1.9,12.2c1.9,1.9,6.2,2.1,9.2,0.4
		c6.3-3.9,6.3-12.3-0.2-16.9C164.6,103.1,163.5,102.9,161.2,104z"/>
</g>
</svg>
